<?xml version="1.0" standalone="no"?>
<!DOCTYPE svg PUBLIC "-//W3C//DTD SVG 20010904//EN"
 "http://www.w3.org/TR/2001/REC-SVG-20010904/DTD/svg10.dtd">
<svg version="1.0" xmlns="http://www.w3.org/2000/svg"
 width="1536.000000pt" height="1024.000000pt" viewBox="0 0 1536.000000 1024.000000"
 preserveAspectRatio="xMidYMid meet">

<g transform="translate(0.000000,1024.000000) scale(0.100000,-0.100000)"
fill="#000000" stroke="none">
<path d="M5690 2706 c0 -159 1 -165 20 -163 19 1 20 8 20 164 0 156 -1 163
-20 163 -19 0 -20 -7 -20 -164z"/>
<path d="M6040 2710 c0 -153 1 -160 20 -160 19 0 20 7 20 160 0 153 -1 160
-20 160 -19 0 -20 -7 -20 -160z"/>
<path d="M6400 2710 c0 -133 2 -160 15 -160 11 0 15 28 17 160 3 147 2 160
-14 160 -16 0 -18 -14 -18 -160z"/>
<path d="M6603 2862 c-91 -5 -58 -22 42 -22 123 0 125 -18 3 -22 l-93 -3 -3
-37 -3 -38 115 0 c96 0 116 3 116 15 0 12 -17 15 -95 15 -57 0 -95 4 -95 10 0
6 37 10 90 10 l90 0 0 38 0 37 -58 0 c-31 0 -81 -1 -109 -3z"/>
<path d="M7012 2813 l3 -58 108 -3 107 -3 0 61 c0 47 -3 60 -15 60 -8 0 -15
-7 -15 -15 0 -12 -15 -15 -75 -15 -60 0 -75 3 -75 15 0 8 -9 15 -20 15 -19 0
-21 -5 -18 -57z m188 -18 c0 -12 -15 -15 -75 -15 -60 0 -75 3 -75 15 0 12 15
15 75 15 60 0 75 -3 75 -15z"/>
<path d="M7560 2815 c0 -55 0 -55 -31 -55 -24 0 -30 -4 -27 -17 2 -13 11 -17
31 -15 l27 3 0 -90 c0 -84 1 -91 20 -91 19 0 20 7 20 160 0 153 -1 160 -20
160 -18 0 -20 -7 -20 -55z"/>
<path d="M7765 2863 c-28 -7 -55 -33 -55 -53 0 -22 28 -47 63 -55 48 -12 29
-25 -38 -25 -51 0 -65 -3 -65 -15 0 -13 24 -15 155 -15 131 0 155 2 155 15 0
12 -15 15 -71 15 -52 0 -70 3 -67 13 3 6 16 13 30 15 14 2 35 14 48 27 41 43
-7 86 -93 84 -23 -1 -51 -4 -62 -6z m121 -37 c14 -11 16 -17 7 -26 -16 -18
-96 -24 -122 -11 -23 13 -28 37 -8 44 26 11 104 6 123 -7z"/>
<path d="M8800 2835 c0 -33 -2 -35 -35 -35 -24 0 -35 5 -35 14 0 22 -40 46
-78 46 -42 0 -82 -38 -82 -78 0 -72 96 -100 150 -42 17 18 38 30 54 30 23 0
26 -4 26 -35 0 -27 4 -35 18 -35 15 0 17 11 17 85 0 74 -2 85 -17 85 -14 0
-18 -8 -18 -35z m-116 -21 c34 -34 9 -78 -41 -72 -23 2 -29 9 -31 33 -6 46 40
71 72 39z"/>
<path d="M9040 2855 c0 -23 -46 -63 -81 -70 -16 -4 -29 -13 -29 -21 0 -23 44
-16 86 12 33 23 41 24 59 13 65 -41 105 -50 105 -25 0 8 -11 16 -23 20 -35 8
-77 45 -77 67 0 12 -7 19 -20 19 -11 0 -20 -7 -20 -15z"/>
<path d="M9490 2710 c0 -136 2 -160 15 -160 13 0 15 24 15 160 0 136 -2 160
-15 160 -13 0 -15 -24 -15 -160z"/>
<path d="M9820 2705 c0 -142 2 -164 15 -159 12 5 15 25 15 90 0 83 0 84 25 84
16 0 25 6 25 15 0 9 -9 15 -25 15 -24 0 -25 3 -25 60 0 47 -3 60 -15 60 -13 0
-15 -25 -15 -165z"/>
<path d="M8245 2828 c-8 -25 -21 -39 -55 -56 -46 -23 -58 -36 -42 -46 12 -7
112 41 112 54 0 6 15 -1 34 -15 46 -35 93 -48 100 -28 9 21 8 23 -11 23 -34 0
-83 39 -90 70 -8 41 -36 40 -48 -2z"/>
<path d="M5503 2835 c-51 -36 -55 -156 -5 -195 37 -30 89 -24 116 13 16 22 21
43 21 89 -1 53 -4 63 -28 84 -32 27 -73 31 -104 9z m77 -30 c21 -26 25 -101 6
-130 -34 -52 -86 -15 -86 60 0 68 47 109 80 70z"/>
<path d="M5820 2735 l0 -105 80 0 80 0 0 105 0 105 -80 0 -80 0 0 -105z m130
0 l0 -75 -45 0 -45 0 0 75 0 75 45 0 45 0 0 -75z"/>
<path d="M6170 2825 c0 -11 11 -15 40 -15 38 0 40 -1 40 -31 0 -37 -30 -90
-68 -119 -23 -18 -24 -22 -10 -36 13 -13 19 -10 55 29 l40 43 37 -39 c30 -32
40 -36 52 -26 12 10 12 14 -6 26 -32 23 -70 89 -70 123 0 28 2 30 40 30 29 0
40 4 40 15 0 12 -17 15 -95 15 -78 0 -95 -3 -95 -15z"/>
<path d="M7340 2825 c0 -12 13 -15 56 -15 54 0 55 0 52 -27 -3 -27 -5 -28 -55
-25 l-53 3 0 -71 0 -70 44 0 c79 0 136 12 136 28 0 12 -12 14 -70 9 l-70 -6 0
35 c0 33 1 34 43 35 23 1 45 1 50 0 4 0 7 26 7 59 l0 60 -70 0 c-56 0 -70 -3
-70 -15z"/>
<path d="M9270 2735 l0 -105 58 0 c84 0 132 10 132 27 0 12 -13 14 -75 8 l-75
-7 0 91 c0 84 -1 91 -20 91 -19 0 -20 -7 -20 -105z"/>
<path d="M9610 2735 l0 -105 73 0 c83 0 119 8 114 24 -2 7 -28 10 -75 7 l-72
-3 0 76 0 76 55 0 c42 0 55 3 55 15 0 12 -15 15 -75 15 l-75 0 0 -105z"/>
<path d="M6970 2715 c0 -12 14 -15 70 -15 40 0 70 -4 70 -10 0 -5 -22 -10 -50
-10 -38 0 -50 -4 -50 -15 0 -12 17 -15 95 -15 57 0 95 -4 95 -10 0 -6 -38 -10
-95 -10 l-95 0 0 -40 0 -40 115 0 c85 0 115 3 115 13 0 9 -25 12 -92 12 -64 0
-92 4 -95 13 -4 9 18 12 86 12 l91 0 0 40 0 40 -45 0 c-25 0 -45 5 -45 10 0 6
30 10 70 10 56 0 70 3 70 15 0 13 -24 15 -155 15 -131 0 -155 -2 -155 -15z"/>
<path d="M8910 2716 c0 -14 20 -16 151 -16 116 0 150 3 147 13 -3 9 -45 13
-151 15 -129 3 -147 2 -147 -12z"/>
<path d="M6510 2705 c0 -13 23 -15 156 -15 120 0 155 3 152 13 -4 9 -46 13
-156 15 -131 2 -152 0 -152 -13z"/>
<path d="M8110 2675 c0 -12 14 -15 70 -15 l70 0 0 -61 c0 -52 2 -60 16 -55 9
3 18 6 20 6 2 0 4 25 4 55 l0 55 65 0 c51 0 65 3 65 15 0 13 -24 15 -155 15
-131 0 -155 -2 -155 -15z"/>
<path d="M7710 2665 c0 -12 17 -15 89 -15 50 0 93 -4 96 -10 4 -6 -28 -10 -89
-10 l-96 0 0 -40 0 -40 115 0 c85 0 115 3 115 13 0 9 -24 11 -95 9 -81 -3 -95
-1 -95 12 0 13 15 16 90 16 l90 0 0 40 0 40 -110 0 c-91 0 -110 -3 -110 -15z"/>
<path d="M8608 2615 l4 -66 71 2 c57 1 77 6 94 22 l22 20 20 -24 c15 -19 22
-21 32 -12 9 9 6 19 -15 43 -14 17 -26 42 -26 56 0 15 -6 24 -15 24 -9 0 -15
-9 -15 -24 0 -24 -34 -76 -51 -76 -5 0 -9 23 -9 50 0 38 -4 50 -15 50 -8 0
-15 -7 -15 -15 0 -9 -9 -15 -25 -15 -16 0 -25 6 -25 15 0 8 -8 15 -17 15 -16
0 -18 -8 -15 -65z m82 -21 c0 -8 -10 -14 -25 -14 -29 0 -35 26 -7 33 22 5 32
-1 32 -19z"/>
<path d="M9130 2661 c0 -19 -6 -21 -75 -21 -60 0 -75 3 -75 15 0 8 -7 15 -15
15 -12 0 -15 -13 -15 -60 l0 -60 110 0 111 0 -3 62 c-2 50 -6 63 -20 66 -13 2
-18 -3 -18 -17z m-2 -67 c-2 -8 -6 -15 -10 -15 -5 1 -37 1 -73 1 -51 0 -65 3
-65 15 0 12 15 15 76 15 63 0 75 -3 72 -16z"/>
<path d="M6550 2655 c0 -12 17 -15 90 -15 53 0 90 -4 90 -10 0 -6 -37 -10 -90
-10 l-90 0 0 -35 0 -35 115 0 c70 0 115 4 115 10 0 6 -38 10 -95 10 -80 0 -95
3 -95 16 0 13 13 15 90 12 l90 -3 0 38 0 37 -110 0 c-91 0 -110 -3 -110 -15z"/>
<path d="M6329 2273 c-5 -39 -2 -113 4 -113 4 0 7 27 7 60 0 33 -2 60 -5 60
-3 0 -5 -3 -6 -7z"/>
<path d="M6925 2268 c-6 -22 -1 -128 7 -128 5 0 8 32 8 70 0 66 -5 87 -15 58z"/>
<path d="M8852 2250 c0 -19 2 -27 5 -17 2 9 2 25 0 35 -3 9 -5 1 -5 -18z"/>
<path d="M6468 2263 c6 -2 18 -2 25 0 6 3 1 5 -13 5 -14 0 -19 -2 -12 -5z"/>
<path d="M6548 2263 c7 -3 16 -2 19 1 4 3 -2 6 -13 5 -11 0 -14 -3 -6 -6z"/>
<path d="M7098 2263 c7 -3 16 -2 19 1 4 3 -2 6 -13 5 -11 0 -14 -3 -6 -6z"/>
<path d="M7768 2231 c4 -37 2 -40 -25 -44 -27 -4 -27 -4 5 -6 32 -1 32 0 32
44 0 25 -3 45 -8 45 -4 0 -6 -18 -4 -39z"/>
<path d="M8112 2238 c-1 -18 3 -40 8 -48 7 -11 10 -2 10 33 0 53 -15 65 -18
15z"/>
<path d="M10202 2250 c0 -14 2 -19 5 -12 2 6 2 18 0 25 -3 6 -5 1 -5 -13z"/>
<path d="M5076 2247 c-11 -8 -16 -20 -13 -28 4 -11 6 -10 6 3 1 9 13 21 29 26
15 6 20 11 11 11 -8 1 -23 -5 -33 -12z"/>
<path d="M6783 2253 c15 -2 39 -2 55 0 15 2 2 4 -28 4 -30 0 -43 -2 -27 -4z"/>
<path d="M7998 2253 c7 -3 16 -2 19 1 4 3 -2 6 -13 5 -11 0 -14 -3 -6 -6z"/>
<path d="M9135 2250 l-80 -6 83 -2 c49 -1 82 2 82 8 0 6 -1 9 -2 8 -2 -1 -39
-5 -83 -8z"/>
<path d="M9352 2235 c0 -16 2 -22 5 -12 2 9 2 23 0 30 -3 6 -5 -1 -5 -18z"/>
<path d="M9578 2253 c17 -2 47 -2 65 0 17 2 3 4 -33 4 -36 0 -50 -2 -32 -4z"/>
<path d="M5301 2233 c0 -10 4 -36 9 -58 8 -39 8 -38 7 18 0 31 -4 57 -9 57 -4
0 -8 -8 -7 -17z"/>
<path d="M5362 2243 c33 -4 37 -8 41 -36 4 -31 4 -31 5 6 l2 37 -42 -2 -43 -1
37 -4z"/>
<path d="M5828 2243 c12 -2 30 -2 40 0 9 3 -1 5 -23 4 -22 0 -30 -2 -17 -4z"/>
<path d="M5906 2235 c4 -8 8 -15 10 -15 2 0 4 7 4 15 0 8 -4 15 -10 15 -5 0
-7 -7 -4 -15z"/>
<path d="M6167 2243 c-4 -3 -7 -19 -7 -35 0 -22 6 -31 27 -39 29 -11 73 2 73
21 0 6 -11 3 -25 -6 -19 -12 -28 -14 -38 -5 -8 6 -17 8 -20 4 -4 -3 -7 8 -7
25 0 16 6 33 13 35 6 3 7 6 1 6 -6 1 -14 -2 -17 -6z"/>
<path d="M7034 2235 c-3 -8 -4 -20 -2 -27 3 -7 7 -1 10 15 6 29 1 36 -8 12z"/>
<path d="M8203 2175 c0 -44 2 -61 4 -37 2 23 2 59 0 80 -2 20 -4 1 -4 -43z"/>
<path d="M8713 2243 c9 -2 25 -2 35 0 9 3 1 5 -18 5 -19 0 -27 -2 -17 -5z"/>
<path d="M6880 2230 c0 -5 7 -10 15 -10 8 0 15 5 15 10 0 6 -7 10 -15 10 -8 0
-15 -4 -15 -10z"/>
<path d="M7673 2233 c15 -2 39 -2 55 0 15 2 2 4 -28 4 -30 0 -43 -2 -27 -4z"/>
<path d="M9964 2227 c-3 -8 -1 -36 4 -63 l10 -49 1 63 c1 60 -4 77 -15 49z"/>
<path d="M5622 2210 c0 -14 2 -19 5 -12 2 6 2 18 0 25 -3 6 -5 1 -5 -13z"/>
<path d="M6288 2213 c7 -3 16 -2 19 1 4 3 -2 6 -13 5 -11 0 -14 -3 -6 -6z"/>
<path d="M9800 2165 c0 -32 3 -55 7 -52 7 8 5 98 -2 105 -3 3 -5 -21 -5 -53z"/>
<path d="M6468 2203 c6 -2 18 -2 25 0 6 3 1 5 -13 5 -14 0 -19 -2 -12 -5z"/>
<path d="M7441 2194 c0 -11 3 -14 6 -6 3 7 2 16 -1 19 -3 4 -6 -2 -5 -13z"/>
<path d="M9610 2206 c0 -2 14 -6 30 -8 17 -3 30 -1 30 4 0 4 -13 8 -30 8 -16
0 -30 -2 -30 -4z"/>
<path d="M6870 2181 c0 -5 9 -7 20 -4 11 3 20 7 20 9 0 2 -9 4 -20 4 -11 0
-20 -4 -20 -9z"/>
<path d="M8520 2179 c0 -5 -4 -7 -10 -4 -5 3 -10 2 -10 -4 0 -5 9 -9 19 -8 11
0 17 6 14 14 -6 16 -13 17 -13 2z"/>
<path d="M9461 2174 c0 -11 3 -14 6 -6 3 7 2 16 -1 19 -3 4 -6 -2 -5 -13z"/>
<path d="M10061 2174 c0 -11 3 -14 6 -6 3 7 2 16 -1 19 -3 4 -6 -2 -5 -13z"/>
<path d="M5727 2173 c-4 -3 -7 -27 -7 -51 0 -56 7 -51 15 11 7 46 5 54 -8 40z"/>
<path d="M5212 2106 c1 -36 6 -66 10 -66 12 0 9 118 -3 125 -7 5 -9 -14 -7
-59z"/>
<path d="M7521 2154 c0 -11 3 -14 6 -6 3 7 2 16 -1 19 -3 4 -6 -2 -5 -13z"/>
<path d="M7957 2151 c-4 -17 -3 -21 5 -13 5 5 8 16 6 23 -3 8 -7 3 -11 -10z"/>
<path d="M5640 2149 c0 -17 39 -53 48 -44 3 3 -6 18 -21 33 -19 18 -27 22 -27
11z"/>
<path d="M9058 2153 c7 -3 16 -2 19 1 4 3 -2 6 -13 5 -11 0 -14 -3 -6 -6z"/>
<path d="M9320 2145 c-7 -8 -9 -15 -4 -15 4 0 -1 -7 -12 -16 -18 -14 -18 -15
4 -4 13 7 21 14 18 17 -3 4 -1 12 5 20 6 7 9 13 6 13 -2 0 -10 -7 -17 -15z"/>
<path d="M7710 2140 l-95 -6 98 -2 c59 -1 97 2 97 8 0 6 -1 9 -2 8 -2 -1 -46
-5 -98 -8z"/>
<path d="M8850 2098 c0 -32 4 -58 10 -58 13 0 13 80 0 100 -7 11 -10 -2 -10
-42z"/>
<path d="M9383 2136 c0 -8 5 -14 11 -13 6 1 10 -4 9 -10 -2 -7 2 -13 7 -13 16
0 12 15 -8 33 -15 14 -19 14 -19 3z"/>
<path d="M5126 2124 c-11 -8 -16 -14 -10 -14 13 0 39 18 34 24 -3 2 -14 -2
-24 -10z"/>
<path d="M6312 2120 c0 -14 2 -19 5 -12 2 6 2 18 0 25 -3 6 -5 1 -5 -13z"/>
<path d="M7023 2133 c15 -2 39 -2 55 0 15 2 2 4 -28 4 -30 0 -43 -2 -27 -4z"/>
<path d="M7153 2133 c15 -2 37 -2 50 0 12 2 0 4 -28 4 -27 0 -38 -2 -22 -4z"/>
<path d="M8550 2132 c0 -5 7 -15 15 -22 8 -7 15 -8 15 -2 0 5 -7 15 -15 22 -8
7 -15 8 -15 2z"/>
<path d="M6457 2123 c18 -2 50 -2 70 0 21 2 7 4 -32 4 -38 0 -55 -2 -38 -4z"/>
<path d="M6571 2123 c0 -5 4 -17 9 -28 8 -18 9 -17 9 8 1 15 -3 27 -9 27 -5 0
-10 -3 -9 -7z"/>
<path d="M9710 2120 c0 -5 5 -10 11 -10 5 0 7 5 4 10 -3 6 -8 10 -11 10 -2 0
-4 -4 -4 -10z"/>
<path d="M9900 2126 c0 -9 30 -14 35 -6 4 6 -3 10 -14 10 -12 0 -21 -2 -21 -4z"/>
<path d="M5967 2113 c-11 -10 -8 -73 3 -73 6 0 10 18 10 40 0 41 -2 45 -13 33z"/>
<path d="M7105 2108 c-6 -19 -1 -68 8 -68 4 0 7 18 7 40 0 40 -7 52 -15 28z"/>
<path d="M7360 2110 c-13 -8 -13 -10 2 -10 9 0 20 5 23 10 8 13 -5 13 -25 0z"/>
<path d="M10108 2113 c12 -2 32 -2 45 0 12 2 2 4 -23 4 -25 0 -35 -2 -22 -4z"/>
<path d="M8360 2076 c0 -20 4 -36 8 -36 12 0 14 58 2 65 -6 4 -10 -8 -10 -29z"/>
<path d="M6430 2068 c0 -15 5 -28 10 -28 6 0 10 9 10 20 0 18 7 20 58 21 68 1
59 6 -20 12 -58 4 -58 4 -58 -25z"/>
<path d="M9608 2093 c6 -2 18 -2 25 0 6 3 1 5 -13 5 -14 0 -19 -2 -12 -5z"/>
<path d="M9678 2093 c7 -3 16 -2 19 1 4 3 -2 6 -13 5 -11 0 -14 -3 -6 -6z"/>
<path d="M9145 2080 l-100 -6 103 -2 c62 -1 102 2 102 8 0 6 -1 9 -2 8 -2 -1
-48 -5 -103 -8z"/>
<path d="M9720 2072 c0 -14 -7 -17 -37 -14 -21 2 -49 -1 -63 -7 -21 -8 -13
-10 43 -10 65 -1 67 0 67 24 0 14 -2 25 -5 25 -3 0 -5 -8 -5 -18z"/>
<path d="M10209 2083 c0 -5 -2 -16 -4 -25 -2 -10 0 -18 5 -18 4 0 8 11 8 25 0
22 -7 36 -9 18z"/>
<path d="M10290 2075 c0 -8 4 -15 8 -15 5 0 9 7 9 15 0 8 -4 15 -9 15 -4 0 -8
-7 -8 -15z"/>
<path d="M5460 2061 c0 -6 4 -13 10 -16 6 -3 7 1 4 9 -7 18 -14 21 -14 7z"/>
<path d="M6460 2050 c0 -6 28 -9 70 -8 91 4 91 18 0 18 -41 0 -70 -4 -70 -10z"/>
<path d="M6833 2048 c7 -4 21 -8 32 -8 11 0 25 4 32 8 6 4 -8 7 -32 7 -24 0
-38 -3 -32 -7z"/>
</g>
</svg>
