<svg xmlns="http://www.w3.org/2000/svg" width="308" height="126" viewBox="0 0 308 126" role="img" aria-label="직관GO logo">
  <g fill-rule="evenodd" shape-rendering="geometricPrecision">
    <path fill="#532c26" d="M 256 102 L 257 103 L 274 103 L 275 102 L 271 102 L 270 103 L 264 103 L 263 102 Z M 189 102 L 191 102 L 192 103 L 208 103 L 209 102 L 210 102 Z M 280 100 L 280 101 L 281 101 L 281 100 Z M 249 100 L 249 101 L 250 101 L 250 100 Z M 184 100 L 184 101 L 185 101 L 185 100 Z M 220 97 L 219 98 L 218 98 L 218 99 L 219 99 L 219 98 Z M 179 97 L 179 98 L 180 99 L 181 99 Z M 237 88 L 237 90 L 240 93 L 240 94 L 241 94 L 242 95 L 242 96 L 243 96 L 246 99 L 246 98 L 245 97 L 244 97 L 243 96 L 243 95 L 242 95 L 241 94 L 241 93 L 240 93 L 238 91 Z M 172 88 L 172 90 L 174 92 L 173 91 Z M 227 87 L 227 89 L 226 90 L 225 90 L 225 92 L 227 89 Z M 277 85 L 276 85 L 276 86 L 274 88 L 273 88 L 273 89 L 274 89 L 274 88 L 276 86 L 277 86 Z M 170 83 L 170 86 L 171 86 L 171 83 Z M 213 76 L 213 80 L 214 79 L 213 78 Z M 199 66 L 199 74 L 200 74 L 200 66 Z M 201 63 L 224 63 L 225 64 L 225 65 L 227 65 L 228 66 L 228 84 L 229 84 L 229 66 L 228 66 L 227 65 L 227 64 L 225 64 L 224 63 Z M 278 54 L 278 82 L 279 82 L 279 54 Z M 235 52 L 235 84 L 236 84 L 236 52 Z M 186 52 L 186 57 L 185 58 L 185 79 L 186 80 L 186 84 L 187 85 L 187 86 L 188 86 L 190 88 L 190 89 L 191 89 L 191 88 L 190 88 L 188 86 L 188 85 L 187 85 L 186 84 Z M 252 49 L 252 50 L 251 51 L 251 84 L 252 85 L 253 85 L 252 85 L 251 84 L 251 51 L 252 50 L 253 50 L 253 49 Z M 170 49 L 170 55 L 171 55 L 171 49 Z M 209 47 L 209 48 L 210 48 L 211 49 L 211 50 L 212 50 L 212 49 L 211 49 L 210 48 L 210 47 Z M 190 47 L 189 47 L 189 48 L 188 49 L 187 49 L 187 50 L 188 50 L 188 49 L 189 48 L 190 48 Z M 268 45 L 269 46 L 272 46 L 271 46 L 270 45 Z M 257 46 L 260 46 L 260 45 L 258 45 Z M 203 45 L 203 46 L 205 46 L 205 45 Z M 196 45 L 194 45 L 193 46 L 192 46 L 195 46 Z M 290 44 L 291 44 L 292 45 L 292 48 L 293 49 L 293 53 L 294 54 L 294 81 L 293 82 L 293 85 L 292 86 L 292 89 L 291 90 L 290 90 L 290 91 L 291 91 L 291 90 L 292 89 L 292 86 L 294 84 L 294 50 L 292 48 L 292 45 L 291 44 Z M 226 45 L 225 44 L 225 46 L 226 46 L 227 47 L 227 55 L 226 56 L 215 56 L 214 55 L 214 54 L 213 54 L 213 55 L 214 55 L 215 56 L 226 56 L 227 55 L 227 47 L 226 46 Z M 239 42 L 239 43 L 237 45 L 237 46 L 238 46 L 238 44 L 239 43 Z M 283 35 L 283 36 L 284 36 L 285 37 L 285 38 L 286 38 L 288 40 L 288 41 L 289 41 L 289 40 L 288 40 L 286 38 L 286 37 L 285 37 L 284 36 L 284 35 Z M 218 35 L 218 36 L 219 36 L 222 39 L 219 36 L 219 35 Z M 181 35 L 180 35 L 180 36 L 178 38 L 177 38 L 177 39 L 176 40 L 175 40 L 175 41 L 174 42 L 174 43 L 172 45 L 172 46 L 172 45 L 173 44 L 174 44 L 174 42 L 175 41 L 176 41 L 176 40 L 180 36 L 181 36 Z M 274 32 L 277 32 L 278 33 L 278 34 L 280 34 L 277 32 Z M 190 32 L 187 32 L 184 34 L 186 34 L 186 33 L 187 32 Z M 249 34 L 250 34 L 252 32 L 255 32 L 256 31 L 272 31 L 272 30 L 256 30 L 256 31 L 255 32 L 251 32 L 250 33 L 249 33 Z M 192 30 L 192 31 L 210 31 L 215 34 L 215 33 L 214 32 L 211 32 L 210 31 L 210 30 Z"/>
    <path fill="#33425a" d="M 71 107 L 71 108 L 80 108 L 80 107 Z M 98 104 L 98 106 L 99 106 L 99 104 Z M 98 97 L 98 101 L 99 101 L 99 97 Z M 155 95 L 155 96 L 157 96 L 157 95 Z M 134 95 L 134 96 L 142 96 L 142 95 Z M 26 88 L 26 89 L 66 89 L 66 88 Z M 112 80 L 113 81 L 113 94 L 114 94 L 114 83 Z M 98 82 L 99 82 L 99 81 L 100 80 L 106 80 L 100 80 L 99 81 L 98 81 Z M 112 76 L 112 77 L 118 77 L 118 76 Z M 55 76 L 55 77 L 56 77 L 56 76 Z M 142 73 L 141 74 L 141 77 L 142 78 L 142 84 L 143 85 L 143 86 L 144 87 L 154 87 L 155 86 L 155 85 L 153 87 L 144 87 L 143 86 L 143 85 L 142 84 Z M 26 71 L 26 72 L 27 72 L 27 71 Z M 98 64 L 98 65 L 99 65 L 99 64 Z M 36 64 L 36 65 L 33 67 L 34 67 L 36 65 Z M 128 63 L 127 63 L 126 64 L 119 64 L 119 65 L 128 65 Z M 42 63 L 43 64 L 43 65 L 44 65 L 45 66 L 45 67 L 46 67 L 47 68 L 46 67 L 46 66 L 45 66 L 44 65 L 44 64 L 43 64 Z M 16 63 L 15 64 L 14 64 L 14 67 L 15 67 L 15 64 Z M 62 61 L 62 62 L 63 62 L 64 63 L 64 65 L 64 63 L 63 62 L 63 61 Z M 19 61 L 19 62 L 20 62 L 20 61 Z M 134 54 L 134 57 L 135 57 L 135 54 Z M 103 51 L 103 62 L 104 62 L 104 51 Z M 48 50 L 49 51 L 49 50 Z M 156 49 L 156 50 L 164 50 L 166 52 L 166 53 L 167 54 L 167 58 L 166 59 L 166 60 L 167 60 L 167 54 L 166 53 L 166 51 L 165 51 L 164 50 L 164 49 L 160 49 L 159 50 Z M 105 49 L 114 49 L 115 50 L 116 50 L 116 49 Z M 93 42 L 94 42 L 95 43 L 121 43 L 122 44 L 122 49 L 123 49 L 123 43 L 122 43 L 121 42 L 119 42 L 118 43 L 117 42 Z M 46 42 L 46 44 L 47 45 L 47 46 L 47 45 L 46 44 L 46 43 L 47 42 Z M 62 33 L 62 38 L 63 38 L 63 33 Z M 93 30 L 93 31 L 133 31 L 133 30 Z M 60 30 L 60 31 L 61 31 L 61 30 Z M 16 30 L 16 31 L 18 31 L 18 30 Z M 142 28 L 141 28 L 141 65 L 140 66 L 139 66 L 139 72 L 137 74 L 134 74 L 133 75 L 131 75 L 135 75 L 136 74 L 137 74 L 139 72 L 140 72 L 140 67 L 142 65 Z M 81 26 L 81 27 L 82 27 L 83 28 L 83 72 L 81 75 L 82 75 L 82 74 L 83 73 L 83 28 Z M 153 25 L 153 26 L 154 26 L 155 27 L 155 26 L 154 25 Z M 143 26 L 144 25 L 145 25 L 143 25 Z M 71 25 L 70 25 L 69 26 L 69 27 Z"/>
    <path fill="#556478" d="M 156 105 L 156 106 L 157 106 L 157 105 Z M 98 102 L 98 103 L 99 103 L 99 102 Z M 143 95 L 143 96 L 154 96 L 154 95 Z M 115 95 L 115 96 L 133 96 L 133 95 Z M 98 83 L 98 96 L 99 96 L 99 83 Z M 81 78 L 81 104 L 82 105 L 81 106 L 82 106 L 82 80 L 81 79 Z M 69 73 L 69 74 L 70 75 L 71 75 Z M 55 71 L 55 72 L 56 72 L 56 71 Z M 88 70 L 88 74 L 89 75 L 90 75 L 91 76 L 91 77 L 111 77 L 111 76 L 91 76 L 88 73 Z M 61 69 L 60 69 L 59 72 L 59 71 L 60 70 L 61 70 Z M 16 69 L 17 70 L 17 69 Z M 48 68 L 49 68 L 50 69 L 50 70 L 51 70 L 51 69 Z M 89 66 L 88 66 L 88 68 L 89 67 Z M 129 64 L 129 65 L 133 65 L 133 64 Z M 103 63 L 103 65 L 104 65 L 104 63 Z M 155 62 L 155 84 L 152 86 L 145 86 L 144 85 L 144 86 L 153 86 L 155 84 Z M 60 61 L 60 62 L 63 63 L 62 63 L 61 62 L 61 61 Z M 132 59 L 132 60 L 133 60 L 133 59 Z M 122 59 L 122 60 L 123 60 L 123 59 Z M 26 57 L 26 58 L 27 58 L 27 57 Z M 50 54 L 50 55 L 51 55 L 54 58 L 54 57 L 53 57 L 51 55 L 51 54 Z M 28 54 L 28 55 L 29 55 L 29 54 Z M 163 51 L 164 51 L 165 52 L 165 60 L 165 59 L 166 58 L 166 54 L 165 53 L 165 52 L 164 51 Z M 122 50 L 122 56 L 123 56 L 123 50 Z M 31 49 L 31 50 L 32 50 L 32 49 Z M 134 47 L 134 53 L 135 53 L 135 47 Z M 45 42 L 45 46 L 46 46 L 47 47 L 47 48 L 47 47 L 45 44 Z M 19 30 L 19 31 L 59 31 L 59 30 Z M 82 28 L 81 28 L 81 74 L 81 73 L 82 72 Z M 146 25 L 143 27 L 144 26 L 152 26 L 155 28 L 155 49 L 155 28 L 154 27 L 153 27 L 152 26 L 152 25 L 151 25 L 150 26 L 149 26 L 148 25 Z M 69 29 L 69 28 L 72 25 L 73 26 L 80 26 L 80 25 L 72 25 L 69 28 Z"/>
    <path fill="#828b9a" d="M 157 98 L 156 97 L 156 101 L 157 102 L 157 103 L 154 106 L 153 106 L 152 105 L 150 105 L 149 106 L 144 106 L 143 105 L 131 105 L 130 106 L 102 106 L 101 105 L 100 105 L 101 106 L 155 106 L 155 105 L 156 104 L 157 104 Z M 69 90 L 69 105 L 70 106 L 70 97 L 69 96 Z M 112 83 L 112 94 L 113 95 L 113 96 L 114 96 L 114 95 L 113 95 L 112 94 Z M 100 82 L 102 82 L 103 81 L 107 81 L 100 81 Z M 26 78 L 26 79 L 27 79 L 27 78 Z M 57 71 L 57 72 L 58 72 L 58 71 Z M 90 66 L 90 67 L 88 69 L 89 70 L 89 73 L 90 74 L 90 73 L 89 72 L 89 68 L 90 67 Z M 115 63 L 115 65 L 116 65 L 116 63 Z M 58 61 L 59 62 L 59 61 Z M 163 59 L 163 60 L 164 60 L 164 59 Z M 55 59 L 55 60 L 56 60 L 56 59 Z M 38 59 L 38 60 L 39 60 L 39 59 Z M 122 57 L 122 58 L 123 58 L 123 57 Z M 52 57 L 52 58 L 53 58 Z M 48 52 L 48 53 L 49 53 L 49 52 Z M 110 51 L 114 51 L 115 52 L 115 61 L 116 61 L 116 52 L 115 52 L 114 51 Z M 60 40 L 60 41 L 61 41 L 61 40 Z M 93 39 L 93 41 L 94 41 L 94 40 Z M 16 33 L 16 38 L 17 39 L 17 41 L 18 41 L 18 40 L 16 38 Z M 95 32 L 133 32 L 134 33 L 134 46 L 135 46 L 135 33 L 134 33 L 133 32 Z M 72 26 L 70 28 L 70 29 L 69 30 L 69 72 L 72 75 L 80 75 L 72 75 L 69 72 L 69 71 L 70 70 L 70 28 Z"/>
    <path fill="#a9b0bb" d="M 100 85 L 100 104 L 101 104 L 102 105 L 130 105 L 102 105 L 100 103 Z M 111 82 L 110 82 L 109 81 L 108 81 L 107 82 L 103 82 Z M 26 86 L 27 86 L 28 87 L 68 87 L 70 90 L 70 96 L 70 88 L 69 88 L 68 87 L 28 87 L 27 86 L 27 80 L 29 78 L 80 78 L 28 78 L 28 79 L 27 80 L 26 80 Z M 124 74 L 126 74 L 127 73 L 130 73 L 126 73 L 125 74 Z M 70 71 L 70 72 L 72 74 L 80 74 L 79 74 L 78 73 L 76 73 L 75 74 L 72 74 L 70 72 Z M 23 71 L 23 72 L 24 72 L 24 71 Z M 30 68 L 29 69 L 28 69 L 28 70 Z M 91 66 L 99 66 L 100 67 L 101 67 L 102 66 Z M 48 66 L 48 67 L 51 68 L 52 69 L 52 70 L 54 70 L 53 70 Z M 134 64 L 134 65 L 137 65 L 138 66 L 137 65 L 137 64 Z M 62 64 L 62 65 L 63 65 L 63 64 Z M 153 61 L 153 84 L 154 84 L 154 61 Z M 23 61 L 22 62 L 21 62 L 21 63 Z M 156 59 L 156 60 L 162 60 L 162 59 Z M 40 59 L 40 60 L 42 60 L 42 59 Z M 133 56 L 133 57 L 131 59 L 131 60 L 131 59 L 132 58 L 133 58 Z M 31 52 L 31 53 L 32 53 L 32 52 Z M 61 39 L 60 39 L 59 40 L 46 40 L 46 41 L 59 41 L 59 40 L 60 39 Z M 94 33 L 94 34 L 93 35 L 93 38 L 95 40 L 95 41 L 95 40 L 94 39 Z M 17 38 L 19 40 L 19 41 L 32 41 L 34 43 L 33 44 L 33 46 L 34 46 L 34 42 L 33 42 L 32 41 L 32 40 L 19 40 L 17 38 L 18 37 L 18 33 L 19 32 L 58 32 L 19 32 L 18 33 L 17 33 Z M 150 27 L 152 27 L 153 28 L 153 50 L 154 50 L 155 51 L 153 48 L 153 28 L 152 27 Z"/>
    <path fill="#d4d8de" d="M 110 85 L 110 94 L 111 94 L 111 85 Z M 100 83 L 100 84 L 101 85 L 101 103 L 102 104 L 154 104 L 155 103 L 155 98 L 154 97 L 112 97 L 154 97 L 155 98 L 155 103 L 154 104 L 102 104 L 101 103 L 101 87 L 102 86 L 100 84 Z M 28 80 L 29 79 L 30 80 L 65 80 L 66 79 L 67 80 L 80 80 L 80 79 L 29 79 Z M 114 74 L 123 74 L 124 73 L 125 73 L 117 73 L 116 74 Z M 134 71 L 134 72 L 137 72 L 137 71 Z M 19 71 L 19 72 L 22 72 L 22 71 Z M 52 68 L 53 69 L 56 70 L 55 70 L 54 69 L 54 68 Z M 29 68 L 26 69 L 26 70 L 27 70 L 27 69 L 28 68 Z M 61 66 L 60 66 L 60 67 L 59 68 L 60 67 L 61 67 Z M 34 64 L 33 64 L 33 65 L 32 66 L 31 66 L 31 67 L 32 67 L 32 66 L 33 65 L 34 65 Z M 18 64 L 18 65 L 16 67 L 17 66 L 18 66 Z M 43 61 L 43 62 L 44 62 L 46 64 L 46 65 L 47 65 L 47 64 L 46 64 L 44 62 L 44 61 Z M 35 61 L 35 62 L 36 62 L 36 61 Z M 25 61 L 24 61 L 22 63 L 23 63 L 23 62 L 24 61 Z M 153 59 L 153 60 L 155 60 L 155 59 Z M 54 59 L 54 60 L 55 61 L 56 61 L 57 62 L 57 63 L 58 63 L 56 61 L 55 61 L 54 60 Z M 114 52 L 114 65 L 115 66 L 115 67 L 116 67 L 117 68 L 119 68 L 120 67 L 123 67 L 124 66 L 130 66 L 120 66 L 119 67 L 117 67 L 116 66 L 115 66 L 114 65 Z M 106 52 L 105 52 L 105 65 L 104 66 L 103 66 L 101 68 L 100 68 L 99 67 L 91 67 L 91 68 L 102 68 L 103 67 L 104 67 L 104 66 L 106 63 Z M 153 51 L 154 51 L 155 52 L 155 53 L 162 53 L 163 54 L 163 58 L 164 58 L 164 52 L 155 52 L 154 51 Z M 133 50 L 133 53 L 131 56 L 131 58 L 130 59 L 125 59 L 124 58 L 124 57 L 125 60 L 130 60 L 130 59 L 132 57 L 132 56 L 133 55 Z M 45 49 L 45 50 L 46 50 L 46 49 Z M 18 38 L 19 39 L 32 39 L 33 40 L 33 41 L 34 41 L 35 42 L 35 46 L 34 47 L 33 47 L 33 51 L 33 49 L 35 46 L 35 42 L 34 41 L 34 40 L 33 40 L 32 39 L 19 39 Z M 95 39 L 96 40 L 96 41 L 124 41 L 125 42 L 125 54 L 125 52 L 126 51 L 126 42 L 125 42 L 124 41 L 124 40 L 96 40 L 95 39 L 95 34 L 96 33 L 97 33 L 98 34 L 133 34 L 133 33 L 95 33 Z M 60 33 L 59 33 L 59 36 L 60 37 L 60 38 L 59 39 L 46 39 L 45 40 L 45 41 L 45 40 L 46 39 L 59 39 L 60 38 L 61 38 L 61 37 L 60 36 Z M 144 28 L 144 84 L 145 84 L 145 28 Z"/>
    <path fill="#903d1a" d="M 278 100 L 278 101 L 279 101 L 279 100 Z M 251 100 L 251 101 L 253 101 L 253 100 Z M 217 99 L 215 99 L 214 100 L 213 100 L 213 101 L 214 101 L 214 100 L 215 99 Z M 180 97 L 182 99 L 184 99 L 182 99 L 181 98 L 181 97 Z M 286 95 L 285 95 L 285 96 L 284 97 L 283 97 L 283 98 L 282 99 L 281 99 L 284 98 L 284 97 L 285 96 L 286 96 Z M 177 95 L 177 96 L 178 96 L 178 95 Z M 288 93 L 288 94 L 289 94 L 289 93 Z M 224 93 L 223 93 L 223 94 L 222 95 L 221 95 L 221 96 L 222 96 L 222 95 L 223 94 L 224 94 Z M 259 90 L 260 90 L 261 91 L 269 91 L 270 90 Z M 194 91 L 203 91 L 204 90 L 205 90 L 202 90 L 201 91 L 197 91 L 196 90 L 194 90 Z M 290 88 L 290 89 L 291 89 L 291 88 Z M 225 88 L 225 89 L 226 89 L 226 88 Z M 209 88 L 209 89 L 210 89 L 210 88 Z M 237 86 L 237 87 L 238 88 L 239 91 L 240 92 L 241 92 L 240 92 L 239 91 L 239 90 L 238 89 L 238 87 Z M 251 85 L 252 86 L 252 87 L 253 87 L 254 88 L 254 89 L 255 89 L 255 88 L 254 88 L 253 87 L 253 86 L 252 86 Z M 278 83 L 278 84 L 279 84 L 279 83 Z M 214 80 L 213 81 L 213 84 L 213 83 L 214 82 Z M 201 64 L 201 65 L 224 65 L 224 64 Z M 170 56 L 170 82 L 171 82 L 171 56 Z M 250 52 L 250 53 L 249 54 L 249 82 L 250 82 Z M 213 52 L 213 53 L 214 53 L 215 54 L 215 55 L 226 55 L 226 54 L 220 54 L 219 55 L 216 55 L 214 53 L 214 52 Z M 278 51 L 278 53 L 279 53 L 279 51 Z M 186 51 L 184 54 L 184 82 L 186 85 L 185 84 L 185 80 L 184 79 L 184 58 L 185 57 L 185 52 Z M 292 49 L 292 63 L 293 64 L 293 65 L 292 66 L 292 85 L 292 82 L 293 81 L 293 54 L 292 53 Z M 276 47 L 276 48 L 277 48 L 277 47 Z M 225 47 L 225 50 L 226 51 L 226 47 Z M 290 45 L 290 46 L 291 46 L 291 45 Z M 174 45 L 173 45 L 173 46 L 172 47 L 172 51 L 172 47 L 173 46 L 174 46 Z M 256 45 L 256 46 L 258 44 L 270 44 L 273 46 L 270 44 L 258 44 L 257 45 Z M 191 45 L 191 46 L 194 44 L 205 44 L 206 45 L 206 46 L 208 46 L 205 44 L 194 44 L 193 45 Z M 241 42 L 240 42 L 240 43 L 239 44 L 239 46 L 238 47 L 237 47 L 237 50 L 237 49 L 239 46 L 239 44 L 240 43 L 241 43 Z M 180 37 L 178 39 L 179 39 L 179 38 Z M 281 35 L 281 36 L 282 36 L 282 35 Z M 248 35 L 247 35 L 247 36 L 246 37 L 245 37 L 244 38 L 244 39 L 244 38 L 245 37 L 248 36 Z M 216 35 L 216 36 L 219 37 L 220 38 L 220 39 L 221 39 L 222 40 L 223 43 L 224 43 L 224 42 L 223 42 L 222 41 L 222 40 L 219 37 L 218 37 L 217 36 L 217 35 Z M 182 35 L 182 36 L 183 36 L 183 35 Z M 275 33 L 275 34 L 277 34 L 277 33 Z M 253 33 L 252 33 L 251 34 L 253 34 Z M 187 33 L 187 34 L 189 34 L 191 32 L 210 32 L 211 33 L 214 34 L 213 34 L 210 32 L 191 32 L 190 33 Z"/>
    <path fill="#cd4f0f" d="M 280 99 L 278 99 L 277 100 L 276 100 L 276 101 L 277 101 L 277 100 L 278 99 Z M 250 99 L 253 99 L 254 100 L 254 101 L 255 101 L 255 100 L 254 100 L 253 99 Z M 214 99 L 213 99 L 212 100 L 210 100 L 210 101 L 212 101 L 212 100 L 213 99 Z M 185 99 L 186 99 L 187 100 L 187 101 L 190 101 L 190 100 L 187 100 L 186 99 Z M 247 97 L 247 98 L 248 98 L 248 97 Z M 216 97 L 216 98 L 217 98 L 217 97 Z M 182 97 L 182 98 L 183 98 L 183 97 Z M 289 92 L 287 92 L 287 94 L 287 93 L 288 92 Z M 256 90 L 258 90 L 259 91 L 259 92 L 270 92 L 270 91 L 271 90 L 272 90 L 271 90 L 269 92 L 261 92 L 258 90 Z M 191 90 L 193 92 L 205 92 L 205 91 L 206 90 L 207 90 L 206 90 L 203 92 L 194 92 L 193 91 L 193 90 Z M 290 85 L 290 87 L 291 87 L 291 85 Z M 249 83 L 249 84 L 250 84 L 250 83 Z M 237 83 L 237 85 L 239 87 L 239 89 L 240 90 L 240 91 L 241 91 L 241 90 L 240 90 L 239 89 L 239 86 L 237 84 Z M 184 83 L 184 85 L 185 85 L 186 86 L 186 87 L 186 86 L 184 84 Z M 201 73 L 201 74 L 212 74 L 213 75 L 214 75 L 215 76 L 215 82 L 213 85 L 214 84 L 215 84 L 215 75 L 213 75 L 212 74 L 212 73 Z M 225 66 L 226 67 L 225 68 L 225 87 L 226 87 L 226 66 Z M 225 51 L 225 53 L 226 53 L 226 52 Z M 278 49 L 278 50 L 279 50 L 280 51 L 280 84 L 280 51 L 279 50 L 279 49 Z M 290 47 L 290 51 L 291 51 L 291 47 Z M 239 47 L 239 48 L 237 51 L 237 55 L 237 52 L 239 50 Z M 173 47 L 173 51 L 172 52 L 172 84 L 173 85 L 173 87 L 174 88 L 174 89 L 174 87 L 172 84 L 172 52 L 174 50 L 174 47 Z M 257 44 L 254 44 L 254 46 L 253 47 L 251 47 L 251 48 L 249 50 L 249 53 L 249 52 L 250 51 L 250 49 L 251 48 L 253 48 L 253 47 L 254 46 L 255 46 L 255 45 L 256 44 Z M 206 44 L 207 44 L 209 46 L 210 46 L 211 47 L 211 48 L 212 48 L 213 49 L 213 51 L 214 51 L 216 54 L 219 54 L 216 54 L 215 53 L 215 51 L 212 48 L 212 47 L 211 47 L 210 46 L 210 45 L 209 45 L 208 44 Z M 175 43 L 175 44 L 176 44 L 176 43 Z M 287 42 L 288 43 L 288 44 L 289 44 L 289 42 Z M 259 42 L 259 43 L 270 43 L 271 44 L 272 44 L 274 46 L 275 46 L 275 45 L 274 44 L 271 44 L 270 43 L 270 42 Z M 204 43 L 203 42 L 194 42 L 194 43 L 193 44 L 191 44 L 190 45 L 189 45 L 189 46 L 188 47 L 187 47 L 187 48 L 186 49 L 185 49 L 185 50 L 184 51 L 184 53 L 184 52 L 186 50 L 186 49 L 187 48 L 188 48 L 188 47 L 189 46 L 190 46 L 190 45 L 191 44 L 193 44 L 194 43 Z M 242 40 L 242 41 L 243 41 L 243 40 Z M 177 40 L 177 41 L 178 41 L 178 40 Z M 217 37 L 218 38 L 218 39 L 219 39 L 220 40 L 220 41 L 221 41 L 222 42 L 222 43 L 223 44 L 223 46 L 224 46 L 224 44 L 223 44 L 222 43 L 221 40 L 220 40 L 219 39 L 219 38 L 218 38 Z M 181 37 L 180 38 L 180 39 L 181 39 Z M 250 35 L 249 35 L 249 36 L 248 37 L 245 38 L 245 39 L 246 39 L 246 38 L 247 37 L 250 36 Z M 184 35 L 184 36 L 185 36 L 185 35 Z M 270 33 L 271 34 L 274 34 L 274 33 Z M 254 33 L 254 34 L 258 34 L 258 33 Z M 208 33 L 208 34 L 212 34 L 211 34 L 210 33 Z M 190 34 L 193 34 L 193 33 L 191 33 Z"/>
    <path fill="#f95905" d="M 251 35 L 251 36 L 250 37 L 247 38 L 247 39 L 246 40 L 244 40 L 244 41 L 243 42 L 242 42 L 242 44 L 241 45 L 240 45 L 240 50 L 238 52 L 238 55 L 237 56 L 237 82 L 238 83 L 238 84 L 240 86 L 240 89 L 241 89 L 242 90 L 242 93 L 243 93 L 245 95 L 245 96 L 248 96 L 249 97 L 249 98 L 253 98 L 254 99 L 255 99 L 256 100 L 256 101 L 275 101 L 275 100 L 276 99 L 277 99 L 278 98 L 281 98 L 281 97 L 282 96 L 284 96 L 284 95 L 285 94 L 286 94 L 286 92 L 287 91 L 289 91 L 289 85 L 290 84 L 291 84 L 291 52 L 290 52 L 289 51 L 289 45 L 288 45 L 287 44 L 287 43 L 286 42 L 286 40 L 285 40 L 284 39 L 284 38 L 282 38 L 281 37 L 280 37 L 279 36 L 279 35 L 271 35 L 269 33 L 259 33 L 259 34 L 258 35 Z M 259 41 L 270 41 L 271 42 L 271 43 L 274 43 L 276 45 L 276 46 L 277 46 L 278 47 L 278 48 L 279 48 L 280 49 L 280 50 L 281 51 L 281 84 L 280 85 L 278 85 L 278 87 L 277 88 L 276 88 L 276 89 L 275 90 L 273 90 L 272 91 L 271 91 L 271 92 L 270 93 L 259 93 L 258 92 L 258 91 L 256 91 L 255 90 L 254 90 L 253 89 L 253 88 L 251 88 L 250 87 L 250 85 L 249 85 L 248 84 L 248 50 L 250 48 L 250 47 L 251 46 L 253 46 L 253 44 L 254 43 L 258 43 L 258 42 Z M 186 35 L 186 36 L 185 37 L 182 37 L 182 39 L 181 40 L 179 40 L 179 41 L 178 42 L 177 42 L 177 44 L 176 45 L 175 45 L 175 50 L 173 52 L 173 84 L 175 87 L 175 91 L 176 91 L 177 92 L 177 93 L 180 95 L 180 96 L 183 96 L 184 97 L 184 98 L 186 98 L 187 99 L 190 99 L 191 100 L 191 101 L 209 101 L 209 100 L 210 99 L 212 99 L 213 98 L 215 98 L 215 97 L 216 96 L 219 96 L 219 95 L 220 94 L 221 94 L 221 93 L 223 91 L 224 91 L 224 68 L 225 67 L 224 66 L 202 66 L 201 67 L 202 68 L 202 70 L 201 71 L 201 72 L 212 72 L 213 73 L 213 74 L 215 74 L 216 75 L 216 84 L 215 85 L 214 85 L 213 86 L 213 87 L 212 88 L 211 88 L 211 89 L 210 90 L 208 90 L 207 91 L 206 91 L 206 92 L 205 93 L 193 93 L 190 90 L 189 90 L 188 89 L 188 88 L 186 88 L 185 87 L 185 86 L 184 86 L 183 85 L 183 51 L 184 50 L 184 49 L 185 48 L 186 48 L 186 47 L 187 46 L 188 46 L 188 45 L 189 44 L 190 44 L 191 43 L 193 43 L 193 42 L 194 41 L 203 41 L 205 43 L 208 43 L 209 44 L 210 44 L 211 45 L 211 46 L 212 46 L 213 47 L 213 48 L 216 51 L 216 53 L 224 53 L 224 47 L 223 47 L 222 46 L 222 44 L 221 43 L 221 42 L 220 42 L 219 41 L 219 40 L 218 40 L 217 39 L 217 38 L 214 36 L 214 35 L 208 35 L 207 34 L 207 33 L 194 33 L 194 34 L 193 35 Z"/>
    <path fill="#fafafb" d="M 101 83 L 101 84 L 103 86 L 102 87 L 102 103 L 154 103 L 154 98 L 112 98 L 111 97 L 111 95 L 110 95 L 109 94 L 109 85 L 110 84 L 111 84 L 111 83 Z M 28 81 L 28 82 L 29 83 L 29 86 L 58 86 L 59 85 L 68 85 L 69 86 L 70 86 L 72 88 L 72 105 L 80 105 L 80 81 L 67 81 L 66 80 L 65 81 L 30 81 L 29 80 Z M 91 74 L 113 74 L 114 73 L 116 73 L 117 72 L 133 72 L 133 71 L 134 70 L 137 70 L 137 67 L 136 66 L 131 66 L 130 67 L 124 67 L 123 68 L 120 68 L 119 69 L 117 69 L 116 68 L 115 68 L 113 65 L 113 52 L 107 52 L 107 63 L 106 64 L 105 67 L 102 69 L 91 69 Z M 96 34 L 96 39 L 124 39 L 125 40 L 125 41 L 126 41 L 127 42 L 127 51 L 126 52 L 126 54 L 125 55 L 125 58 L 130 58 L 130 56 L 132 53 L 132 50 L 133 49 L 133 35 L 98 35 L 97 34 Z M 19 33 L 19 38 L 32 38 L 33 39 L 34 39 L 36 42 L 36 46 L 34 49 L 34 51 L 33 52 L 33 53 L 32 54 L 31 54 L 31 56 L 30 57 L 29 57 L 29 58 L 28 59 L 26 59 L 26 61 L 25 62 L 24 62 L 24 63 L 23 64 L 19 64 L 19 66 L 18 67 L 17 67 L 18 67 L 19 68 L 19 70 L 25 70 L 25 69 L 26 68 L 27 68 L 28 67 L 30 67 L 30 66 L 31 65 L 32 65 L 32 64 L 33 63 L 34 63 L 34 61 L 35 60 L 37 60 L 37 58 L 38 57 L 39 57 L 40 58 L 42 58 L 43 59 L 43 60 L 44 60 L 45 61 L 45 62 L 46 63 L 47 63 L 48 64 L 48 65 L 49 65 L 50 66 L 50 67 L 54 67 L 55 68 L 55 69 L 58 70 L 58 68 L 59 67 L 59 66 L 60 65 L 61 65 L 61 64 L 57 64 L 56 63 L 56 62 L 55 62 L 53 60 L 53 59 L 52 59 L 51 58 L 51 57 L 50 57 L 49 56 L 49 55 L 46 53 L 46 51 L 45 51 L 44 50 L 44 40 L 46 38 L 59 38 L 59 37 L 58 36 L 58 33 Z M 146 28 L 146 84 L 148 84 L 148 83 L 149 82 L 150 83 L 150 84 L 152 84 L 152 59 L 153 58 L 162 58 L 162 54 L 155 54 L 154 53 L 154 52 L 153 52 L 152 51 L 152 28 Z M 72 28 L 72 72 L 80 72 L 80 28 Z"/>
  </g>
</svg>